<?xml version="1.0" standalone="no"?>
<!DOCTYPE svg PUBLIC "-//W3C//DTD SVG 20010904//EN"
 "http://www.w3.org/TR/2001/REC-SVG-20010904/DTD/svg10.dtd">
<svg version="1.0" xmlns="http://www.w3.org/2000/svg"
 width="512.000000pt" height="512.000000pt" viewBox="0 0 512.000000 512.000000"
 preserveAspectRatio="xMidYMid meet">
<metadata>
Created by potrace 1.14, written by Peter Selinger 2001-2017
</metadata>
<g transform="translate(0.000000,512.000000) scale(0.100000,-0.100000)"
fill="#000000" stroke="none">
<path d="M2286 5100 c-289 -33 -592 -122 -841 -246 -60 -31 -114 -60 -120 -66
-5 -5 22 6 60 25 154 76 449 187 462 173 3 -3 -21 -12 -53 -22 -179 -52 -491
-207 -704 -351 -60 -41 -80 -51 -55 -29 22 20 77 61 123 92 45 30 82 57 82 60
0 8 -78 -40 -173 -107 -392 -276 -709 -684 -887 -1140 -43 -111 -94 -278 -87
-285 2 -2 12 23 22 58 21 76 76 221 81 215 2 -2 -8 -37 -22 -78 -14 -41 -38
-128 -54 -193 -51 -204 -70 -327 -94 -606 -2 -25 -2 18 0 95 2 77 11 189 19
249 9 59 15 110 13 112 -9 9 -38 -199 -49 -343 -37 -531 118 -1109 419 -1557
102 -151 168 -232 302 -370 392 -403 876 -651 1450 -743 164 -26 578 -26 735
0 223 38 420 93 601 168 107 45 254 116 254 124 0 3 -24 -7 -52 -21 -129 -65
-417 -175 -458 -174 -8 1 28 16 80 34 204 71 438 187 627 312 68 45 123 79
123 76 0 -7 -21 -23 -130 -99 -107 -75 -134 -97 -75 -63 208 122 459 339 620
535 153 186 252 342 351 549 54 114 158 409 151 429 -2 6 -9 -11 -17 -39 -19
-69 -91 -256 -97 -251 -2 3 0 14 6 24 15 30 80 246 101 342 42 189 63 342 70
516 l8 180 -4 -210 c-2 -115 -6 -232 -9 -260 -2 -27 3 -12 12 35 23 126 23
507 -1 660 -82 535 -284 967 -636 1364 -316 356 -789 642 -1255 759 -213 53
-335 69 -585 72 -129 2 -270 0 -314 -5z m-331 -90 c-11 -5 -27 -9 -35 -9 -9 0
-8 4 5 9 11 5 27 9 35 9 9 0 8 -4 -5 -9z m-545 -350 c0 -12 -40 -33 -48 -25
-4 4 2 13 12 21 23 16 36 18 36 4z m5 -40 c-3 -5 -12 -10 -18 -10 -7 0 -6 4 3
10 19 12 23 12 15 0z m-435 -84 c-53 -49 -182 -157 -170 -142 16 21 172 156
180 156 2 0 -2 -6 -10 -14z m65 -136 c-13 -26 -13 -29 0 -24 8 3 12 10 9 15
-3 5 2 9 12 9 13 0 14 -3 4 -15 -6 -8 -8 -20 -4 -26 4 -7 3 -9 -3 -6 -6 4 -17
-1 -24 -10 -12 -14 -12 -16 1 -9 8 4 4 -3 -10 -16 -14 -13 -34 -35 -45 -48
l-20 -24 35 24 c19 13 37 28 38 32 2 4 10 8 18 8 8 0 14 4 14 9 0 5 10 7 22 3
16 -4 18 -7 8 -10 -24 -8 -52 -41 -44 -54 4 -6 3 -8 -2 -5 -5 3 -21 -3 -34
-14 -14 -10 -20 -19 -13 -19 6 0 15 5 18 10 3 6 14 10 23 10 10 0 -19 -36 -76
-92 -67 -68 -98 -93 -117 -93 -24 0 -30 11 -25 45 1 11 -3 10 -19 -4 -22 -20
-22 -20 -15 0 5 14 0 12 -25 -11 -17 -16 -29 -35 -27 -42 3 -7 -1 -10 -9 -6
-11 4 -12 10 -4 24 5 10 14 19 19 19 5 0 14 10 21 21 7 13 7 19 1 15 -21 -13
-23 34 -3 62 39 55 261 252 284 252 4 0 1 -13 -8 -30z m95 -124 c0 -2 -8 -10
-17 -17 -16 -13 -17 -12 -4 4 13 16 21 21 21 13z m-53 -66 c-6 -11 -15 -20
-19 -20 -5 0 -8 -5 -8 -10 0 -7 6 -7 19 0 30 15 38 12 13 -6 -12 -8 -20 -20
-16 -25 4 -6 14 -3 25 7 10 9 19 14 19 11 0 -3 -9 -15 -21 -26 -12 -11 -19
-25 -17 -32 3 -8 9 -7 20 5 21 20 35 21 18 1 -7 -8 -9 -15 -5 -15 3 0 -8 -14
-25 -31 -32 -32 -34 -44 -7 -33 9 3 15 11 13 17 -1 7 -1 9 1 4 3 -4 9 -5 14
-1 20 12 7 -4 -42 -51 -29 -28 -49 -44 -45 -37 12 20 -22 26 -41 7 -16 -16
-17 -16 -25 4 -5 14 -16 21 -33 21 -15 0 -24 4 -20 10 10 16 -12 12 -29 -5
-30 -30 -27 -14 5 28 46 59 201 207 210 201 5 -3 3 -14 -4 -24z m-344 -103
c-4 -8 -34 -43 -65 -76 -32 -34 -58 -67 -58 -75 0 -7 -17 -35 -37 -61 -20 -27
-31 -45 -25 -41 16 10 15 -6 0 -23 -11 -11 -10 -13 0 -7 6 4 19 22 28 39 17
32 74 103 74 91 0 -3 -9 -17 -20 -31 -22 -28 -27 -48 -8 -37 7 4 8 3 4 -4 -4
-6 -12 -9 -20 -6 -7 3 -18 -7 -24 -21 -16 -35 -15 -40 5 -24 17 13 17 13 1
-12 -22 -34 -13 -42 23 -23 24 12 28 12 23 0 -3 -8 -1 -17 5 -21 7 -4 2 -23
-14 -56 -30 -57 -26 -65 6 -13 12 20 32 47 44 60 19 20 24 22 28 9 4 -8 1 -14
-5 -12 -6 1 -13 -4 -16 -12 -3 -9 0 -11 7 -6 8 4 14 -1 18 -14 3 -12 10 -21
15 -21 6 0 8 -7 5 -15 -4 -8 -1 -17 5 -21 6 -4 8 -3 4 4 -3 6 -1 14 5 17 23
15 21 -7 -6 -57 -17 -32 -22 -48 -13 -40 23 19 33 -3 15 -32 -14 -20 -53 -34
-41 -14 3 5 10 6 15 3 5 -4 9 1 9 9 0 26 -17 18 -31 -13 -7 -16 -21 -34 -31
-40 -16 -10 -17 -8 -12 22 l6 32 -21 -32 c-23 -36 -38 -45 -21 -13 8 15 8 20
-2 21 -7 0 -21 2 -31 4 -9 2 -15 0 -13 -4 3 -4 -6 -20 -20 -36 -13 -15 -24
-33 -24 -38 0 -6 -2 -8 -5 -5 -8 8 16 58 27 58 5 0 7 4 3 10 -3 5 8 37 25 71
17 33 27 59 23 56 -5 -3 -22 -31 -38 -61 -16 -30 -35 -58 -43 -61 -10 -3 -12
0 -8 10 23 56 3 35 -33 -37 -8 -15 -18 -25 -22 -22 -9 5 -2 49 12 76 6 11 9
22 6 24 -2 3 -12 -11 -21 -30 -9 -18 -23 -37 -32 -40 -9 -3 -12 -11 -8 -18 4
-7 4 -10 -1 -6 -4 4 -14 3 -21 -3 -8 -7 -14 -7 -19 1 -5 8 -13 6 -27 -7 -20
-18 -20 -17 -3 27 36 95 135 287 168 325 18 22 39 50 46 63 20 38 141 196 164
214 24 19 33 17 20 -5z m447 -12 c0 -2 -10 -13 -22 -25 -12 -11 -19 -23 -15
-26 3 -4 2 -15 -4 -25 -7 -15 -6 -17 6 -13 8 4 15 1 15 -6 0 -6 4 -9 9 -6 4 3
17 -2 27 -10 10 -9 14 -13 9 -10 -6 2 -11 -4 -11 -14 0 -13 7 -17 24 -15 l23
2 -23 -26 c-12 -14 -16 -20 -8 -13 19 17 40 15 40 -3 0 -8 -4 -15 -9 -15 -5 0
-12 -7 -15 -16 -3 -8 -2 -12 4 -9 6 3 10 -4 10 -16 0 -24 -26 -59 -44 -59 -6
0 -3 5 7 11 9 5 17 17 17 26 0 15 -2 14 -13 -2 -10 -13 -16 -15 -21 -6 -4 6
-16 9 -27 6 -21 -7 -27 10 -6 18 9 4 9 6 0 6 -6 1 -14 -3 -18 -9 -3 -5 -13 -6
-22 -3 -11 4 -14 3 -9 -5 4 -8 2 -10 -7 -6 -9 3 -13 16 -12 33 2 23 -1 27 -15
24 -10 -3 -20 3 -24 13 -5 14 -9 15 -15 6 -6 -10 -10 -10 -20 2 -11 13 1 30
75 106 83 86 94 96 94 85z m-390 -70 c0 -8 -4 -15 -10 -15 -5 0 -10 7 -10 15
0 8 5 15 10 15 6 0 10 -7 10 -15z m20 -79 c0 -2 -8 -10 -17 -17 -16 -13 -17
-12 -4 4 13 16 21 21 21 13z m-49 -59 c-10 -9 -11 -8 -5 6 3 10 9 15 12 12 3
-3 0 -11 -7 -18z m-86 -21 c-17 -26 -45 -42 -45 -25 0 5 7 12 15 15 8 4 12 11
8 17 -3 5 -1 7 5 3 6 -3 13 -2 17 4 3 5 8 10 11 10 2 0 -3 -11 -11 -24z m618
-45 c-2 -6 4 -11 12 -11 37 0 -3 -46 -47 -54 -37 -6 -41 14 -11 53 24 30 51
37 46 12z m-1031 -182 c-21 -46 -44 -95 -50 -109 l-12 -25 6 25 c8 32 86 201
91 197 2 -2 -14 -42 -35 -88z m1111 26 c-3 -9 -8 -14 -10 -11 -3 3 -2 9 2 15
9 16 15 13 8 -4z m-524 -31 c13 -24 23 -30 44 -30 23 1 27 -2 23 -17 -2 -10
-2 -17 1 -14 6 6 43 -24 43 -36 0 -4 -9 -3 -19 3 -14 7 -22 7 -26 0 -4 -6 -3
-10 2 -9 14 2 27 -1 42 -10 13 -8 13 -12 0 -27 -12 -16 -12 -17 3 -11 12 4 15
2 11 -9 -3 -7 -9 -14 -15 -14 -5 0 -7 -4 -4 -9 4 -5 -3 -7 -14 -4 -11 3 -17
10 -13 17 3 6 -5 1 -19 -12 -24 -21 -38 -21 -38 2 0 6 4 5 9 -2 7 -11 9 -11
14 2 8 21 -8 29 -23 11 -14 -16 -34 -10 -24 7 4 7 2 8 -5 4 -6 -4 -8 -12 -5
-18 5 -7 2 -8 -7 -2 -8 4 -20 9 -27 10 -8 2 -19 10 -26 20 -9 11 -21 15 -39
12 -30 -6 -28 1 14 74 65 111 70 114 98 62z m-87 -16 c-8 -8 -9 -4 -5 13 4 13
8 18 11 10 2 -7 -1 -18 -6 -23z m690 -10 c-7 -7 -12 -8 -12 -2 0 14 12 26 19
19 2 -3 -1 -11 -7 -17z m32 3 c3 -5 -2 -15 -12 -22 -15 -12 -16 -12 -5 2 7 9
10 19 6 22 -3 4 -4 7 0 7 3 0 8 -4 11 -9z m36 -25 c0 -2 -8 -10 -17 -17 -16
-13 -17 -12 -4 4 13 16 21 21 21 13z m-938 -78 c-8 -8 -9 -4 -5 13 4 13 8 18
11 10 2 -7 -1 -18 -6 -23z m444 -34 c-7 -17 6 -18 22 -2 7 7 3 -7 -8 -30 -19
-38 -40 -56 -40 -33 0 6 -9 8 -20 6 -19 -4 -19 -3 -4 28 9 18 21 38 26 44 13
16 31 6 24 -13z m-325 -21 c-12 -20 -14 -14 -5 12 4 9 9 14 11 11 3 -2 0 -13
-6 -23z m2074 -63 c303 -81 542 -328 616 -635 18 -77 20 -109 16 -225 -6 -157
-21 -220 -82 -345 -88 -181 -215 -309 -390 -396 -143 -70 -231 -91 -385 -92
-96 0 -143 5 -202 21 -180 49 -278 103 -398 222 -179 176 -260 372 -260 623 0
198 54 358 171 514 58 77 62 81 141 145 113 92 248 155 393 184 97 19 277 11
380 -16z m-1539 -76 c-4 -9 -9 -15 -11 -12 -3 3 -3 13 1 22 4 9 9 15 11 12 3
-3 3 -13 -1 -22z m57 -29 c-3 -9 -8 -14 -10 -11 -3 3 -2 9 2 15 9 16 15 13 8
-4z m-1073 -175 c0 -16 -4 -30 -10 -30 -11 0 -14 43 -3 53 11 12 13 8 13 -23z
m32 -22 c-9 -9 -12 -7 -12 12 0 19 3 21 12 12 9 -9 9 -15 0 -24z m-235 -600
c-2 -13 -4 -5 -4 17 -1 22 1 32 4 23 2 -10 2 -28 0 -40z m4819 -475 c-10 -10
-19 5 -10 18 6 11 8 11 12 0 2 -7 1 -15 -2 -18z m54 19 c0 -5 -7 -17 -15 -28
-14 -18 -14 -18 -15 9 0 17 5 27 15 27 8 0 15 -4 15 -8z m-1020 -216 c0 -2 -8
-10 -17 -17 -16 -13 -17 -12 -4 4 13 16 21 21 21 13z m70 -70 c0 -3 -4 -8 -10
-11 -5 -3 -10 -1 -10 4 0 6 5 11 10 11 6 0 10 -2 10 -4z m153 -32 c4 -1 12 -2
18 -3 6 0 4 -12 -6 -28 -12 -20 -24 -28 -44 -28 -30 0 -31 6 -9 52 6 13 16 19
22 15 6 -4 14 -7 19 -8z m110 -43 c-2 -6 2 -11 7 -11 6 0 10 6 10 13 0 8 3 9
8 1 4 -6 15 -10 24 -9 9 2 26 -6 38 -17 27 -25 61 -29 78 -8 19 23 -36 -88
-71 -142 -18 -27 -36 -44 -44 -41 -7 3 -13 9 -13 14 0 4 6 6 14 3 9 -4 13 4
12 26 -1 30 -1 31 -18 10 -16 -20 -34 -29 -24 -11 7 10 -17 21 -45 21 -18 0
-23 12 -21 55 0 11 -2 14 -4 8 -6 -14 -25 -18 -23 -5 4 25 -2 42 -13 36 -10
-6 -10 -4 0 7 14 16 16 33 2 24 -5 -3 -10 -2 -10 4 0 6 9 15 20 21 16 9 20 8
20 -6 0 -13 3 -14 13 -5 8 6 17 8 21 4 4 -4 4 1 0 11 -5 14 -3 17 7 14 8 -3
13 -11 12 -17z m-131 -35 c7 4 8 2 4 -5 -9 -13 -26 -5 -25 12 0 9 2 8 6 -1 2
-6 10 -9 15 -6z m564 -13 c2 -9 0 -22 -4 -27 -3 -6 -7 -15 -8 -21 -1 -5 -6
-19 -10 -30 -7 -18 -6 -18 7 -5 9 8 19 28 23 43 3 15 11 27 17 27 6 0 7 -6 4
-12 -4 -7 0 -5 8 5 9 10 21 15 31 11 9 -3 16 -1 16 5 0 6 -5 11 -11 11 -5 0
-7 5 -3 11 5 8 9 8 14 -1 4 -7 13 -9 19 -6 19 12 13 -9 -30 -106 -50 -114
-100 -205 -132 -239 -13 -14 -30 -36 -37 -50 -19 -37 -119 -169 -158 -211 -26
-28 -38 -35 -45 -25 -5 8 -6 5 -3 -9 8 -26 -40 -89 -125 -164 -64 -56 -169
-140 -175 -140 -2 0 1 12 6 26 13 34 13 41 -2 26 -27 -27 -29 -10 -2 20 16 17
23 28 17 24 -7 -4 -13 -3 -13 3 0 6 9 15 20 21 11 6 25 20 31 32 10 18 7 18
-24 -6 -32 -24 -77 -42 -77 -30 0 2 16 19 36 36 30 26 33 33 20 40 -13 7 2 26
74 100 64 65 94 88 106 84 9 -4 22 -2 28 4 9 7 11 2 8 -20 -5 -33 11 -40 28
-12 9 14 10 13 5 -8 l-6 -25 20 24 c12 13 21 19 21 14 0 -5 -6 -15 -12 -21
-10 -10 -8 -12 10 -9 13 2 32 18 43 36 10 17 25 34 33 37 14 5 28 25 91 124
28 43 41 85 23 74 -4 -3 -8 -1 -8 5 0 6 -8 8 -17 4 -16 -6 -16 -4 1 15 17 20
18 22 2 22 -10 0 -25 -4 -34 -9 -15 -8 -17 -4 -17 27 1 21 11 56 23 80 12 23
20 42 18 42 -2 0 -16 -19 -29 -42 -27 -45 -77 -106 -77 -94 0 4 7 18 16 31 9
14 12 25 6 25 -6 0 -16 -8 -22 -17 -8 -14 -10 -14 -9 -3 3 34 -1 51 -12 44 -8
-4 -9 0 -4 15 4 12 2 21 -4 21 -6 0 -10 -5 -8 -11 1 -6 -4 -14 -10 -16 -20 -7
-16 14 12 62 l24 44 -25 -9 -25 -10 18 30 c18 31 37 41 27 15 -9 -23 9 -18 24
6 9 13 9 18 2 14 -7 -5 -7 0 1 13 7 12 15 19 18 17 2 -3 10 0 16 5 9 8 12 4 9
-15 -2 -19 1 -24 10 -16 6 5 26 8 43 5 25 -4 33 -1 38 15 3 10 12 22 20 24 10
4 8 -7 -7 -41 -11 -26 -24 -51 -28 -57 -4 -5 -10 -19 -13 -30 -6 -19 -6 -19 6
-1 7 11 20 28 30 38 9 10 15 18 12 18 -3 0 -1 9 5 20 6 11 15 18 21 15 5 -4 6
-11 3 -17 -4 -6 -3 -8 3 -5 5 3 18 24 28 47 18 40 27 44 31 13z m215 -90 c-11
-21 -20 -35 -21 -31 0 12 33 78 38 74 2 -2 -6 -21 -17 -43z m-1268 22 c-3 -9
-8 -14 -10 -11 -3 3 -2 9 2 15 9 16 15 13 8 -4z m50 -50 c-3 -9 -8 -14 -10
-11 -3 3 -2 9 2 15 9 16 15 13 8 -4z m706 -8 c-2 -1 -12 -9 -22 -16 -15 -12
-17 -12 -11 3 3 9 13 16 22 16 8 0 13 -1 11 -3z m467 -66 c-15 -28 -28 -51
-31 -51 -3 0 7 25 22 55 15 30 29 53 31 51 2 -2 -8 -27 -22 -55z m-980 -60
c-4 -5 -3 -16 0 -25 5 -14 9 -14 23 -4 9 7 1 -4 -18 -25 -34 -36 -51 -40 -51
-11 0 8 -6 14 -12 14 -7 1 3 14 22 30 35 31 45 37 36 21z m57 -66 c-3 -9 -8
-14 -10 -11 -3 3 -2 9 2 15 9 16 15 13 8 -4z m-27 -4 c-10 -15 19 -19 38 -6
25 19 51 8 34 -14 -8 -11 -5 -10 10 3 13 11 22 14 22 7 0 -8 5 -9 19 -2 17 10
18 8 11 -24 -7 -32 -7 -33 16 -25 20 8 24 6 24 -8 0 -10 -6 -24 -12 -31 -11
-11 -9 -12 8 -3 12 6 25 8 29 4 5 -4 5 1 2 11 -4 9 -2 17 3 17 6 0 10 -5 10
-11 0 -5 6 -7 13 -3 12 7 -11 -21 -68 -84 -16 -19 -52 -52 -80 -75 -27 -23
-40 -30 -27 -16 12 14 19 29 15 34 -5 4 -2 5 5 1 9 -6 12 -2 10 10 -4 27 -21
42 -37 36 -9 -3 -12 -1 -7 6 4 7 2 12 -3 12 -6 0 -11 7 -11 16 0 8 -4 12 -10
9 -6 -4 -7 1 -3 11 5 12 3 15 -6 9 -8 -4 -6 4 4 21 12 20 13 23 2 10 -23 -27
-42 -10 -22 20 13 20 13 24 2 24 -10 0 -13 8 -9 25 2 14 9 25 14 25 5 0 7 -4
4 -9z m594 -20 c0 -5 -12 -16 -26 -26 -25 -16 -25 -16 -15 3 9 17 19 25 39 31
1 1 2 -3 2 -8z m52 -13 c-7 -7 -12 -20 -12 -29 0 -9 -6 -19 -14 -22 -12 -5
-12 -2 -3 16 19 35 28 47 35 47 3 0 1 -5 -6 -12z m-202 -68 c-12 -16 -24 -30
-26 -30 -3 0 4 14 16 30 12 17 24 30 26 30 3 0 -4 -13 -16 -30z m-170 -56 c0
-8 5 -12 10 -9 6 3 10 2 10 -4 0 -5 8 -8 19 -6 15 3 18 -1 14 -18 -4 -16 -2
-18 5 -8 5 7 15 12 22 9 14 -4 -107 -137 -183 -200 -29 -24 -46 -35 -38 -25 7
9 10 17 7 17 -4 0 0 7 9 16 9 9 14 23 10 32 -3 8 0 21 6 28 10 12 8 13 -7 8
-10 -4 -26 -12 -34 -18 -8 -6 -4 2 9 17 26 29 22 49 -6 26 -12 -10 -15 -10 -9
-1 4 7 2 20 -5 28 -10 12 -9 13 5 8 12 -5 16 0 16 23 0 35 53 93 65 72 5 -8 4
-10 -3 -5 -7 4 -13 2 -13 -3 -1 -6 -2 -17 -3 -23 0 -7 -8 -13 -16 -13 -8 0
-16 -9 -18 -20 -3 -15 8 -9 44 25 27 25 50 48 52 53 7 14 32 7 32 -9z m188
-21 c-15 -35 -28 -51 -28 -35 0 13 29 62 36 62 2 0 -2 -12 -8 -27z m73 -16
c-10 -9 -11 -8 -5 6 3 10 9 15 12 12 3 -3 0 -11 -7 -18z m-31 -42 c-7 -9 -15
-13 -18 -10 -3 2 1 11 8 20 7 9 15 13 18 10 3 -2 -1 -11 -8 -20z m-390 -199
c0 -2 -8 -10 -17 -17 -16 -13 -17 -12 -4 4 13 16 21 21 21 13z m270 -176 c-36
-33 -85 -73 -110 -91 l-45 -31 45 38 c24 22 71 62 105 91 82 71 85 66 5 -7z
m-540 -175 c0 -8 -7 -15 -16 -15 -14 0 -14 3 -4 15 7 8 14 15 16 15 2 0 4 -7
4 -15z m16 -40 c-22 -17 -36 -19 -36 -7 0 14 12 22 34 22 21 -1 21 -1 2 -15z
m-559 -361 c-3 -3 -12 -4 -19 -1 -8 3 -5 6 6 6 11 1 17 -2 13 -5z"/>
<path d="M1025 4010 c-11 -17 5 -32 21 -19 7 6 11 15 8 20 -7 12 -21 11 -29
-1z"/>
<path d="M386 3525 c-3 -9 -6 -22 -5 -28 0 -7 5 -1 10 12 5 13 8 26 5 28 -2 2
-6 -3 -10 -12z"/>
<path d="M1061 3926 c-9 -10 -8 -15 2 -19 8 -3 13 3 14 14 2 23 -1 24 -16 5z"/>
<path d="M1025 3920 c-3 -5 -1 -10 4 -10 6 0 11 5 11 10 0 6 -2 10 -4 10 -3 0
-8 -4 -11 -10z"/>
<path d="M1244 3779 c-4 -7 -3 -9 4 -5 5 3 13 0 15 -6 4 -9 6 -10 6 -1 1 17
-16 25 -25 12z"/>
<path d="M825 3624 c0 -13 5 -24 10 -24 15 0 16 37 2 43 -7 3 -12 -5 -12 -19z"/>
<path d="M1017 3483 c-4 -3 -7 -11 -7 -17 0 -6 5 -5 12 2 6 6 9 14 7 17 -3 3
-9 2 -12 -2z"/>
<path d="M2506 2604 c-17 -16 -21 -51 -8 -70 8 -13 46 -34 61 -34 19 0 51 39
51 63 0 49 -70 76 -104 41z"/>
<path d="M66 3114 c-4 -20 -5 -38 -3 -40 3 -3 8 11 11 32 4 20 5 38 3 40 -3 3
-8 -11 -11 -32z"/>
<path d="M5046 2114 c-3 -26 -4 -49 -2 -52 3 -2 8 17 11 43 4 25 5 48 3 51 -3
2 -8 -17 -12 -42z"/>
<path d="M5031 2034 c0 -11 3 -14 6 -6 3 7 2 16 -1 19 -3 4 -6 -2 -5 -13z"/>
</g>
</svg>
